<?xml version="1.0" encoding="UTF-8"?>
<svg width="16" height="16" version="1.1" viewBox="0 0 16 16" xmlns="http://www.w3.org/2000/svg">
 <rect id="frame" width="16" height="16" fill="none"/>
 <g fill="#9aa8b0" fill-rule="evenodd">
  <path d="m7 1-4 4h4z" fill-opacity=".8"/>
  <path d="m8 1v5h-5v9l4.3903 0.02919c-1.6953-0.63822-2.8354-4.835-0.89342-7.3103 1.942-2.4754 4.803-2.5636 6.5031-1.8417v-4.8772z" fill-opacity=".8"/>
 </g>
 <g transform="matrix(1.4365 0 0 1.4365 -6.9898 -6.9964)">
  <path d="m16.014 12.518c0 1.9392-1.5719 3.5111-3.5111 3.5111-1.939 0-3.5111-1.5719-3.5111-3.5111 0-1.9391 1.572-3.5111 3.5111-3.5111 1.9392 0 3.5111 1.572 3.5111 3.5111" fill="#1a1918" fill-opacity=".8" stroke-width=".027524"/>
  <path d="m12.514 10.851 1.0974 2.7084-1.6575-1.3057zm1.9494 3.3323-1.688-4.0622c-0.04819-0.11715-0.14454-0.17915-0.26148-0.17915-0.11715 0-0.22052 0.06199-0.26871 0.17915l-1.8527 4.4557h0.63376l0.73339-1.8371 2.1886 1.7681c0.08802 0.07117 0.15153 0.10337 0.23409 0.10337 0.16534 0 0.30986-0.12395 0.30986-0.30287 0-0.02912-0.01027-0.07533-0.0289-0.12504z" fill="#fff" stroke-width=".033242"/>
 </g>
</svg>
